<svg width="24" height="24" viewBox="0 0 24 24" fill="none" xmlns="http://www.w3.org/2000/svg">
<rect width="24" height="24" rx="12" fill="#171F2F"/>
<g clip-path="url(#clip0_1_7352)">
<path d="M11.9959 7.83334C9.69587 7.83334 7.83337 9.70001 7.83337 12C7.83337 14.3 9.69587 16.1667 11.9959 16.1667C14.3 16.1667 16.1667 14.3 16.1667 12C16.1667 9.70001 14.3 7.83334 11.9959 7.83334ZM14.8834 10.3333H13.6542C13.5209 9.81251 13.3292 9.31251 13.0792 8.85001C13.8459 9.11251 14.4834 9.64584 14.8834 10.3333ZM12 8.68334C12.3459 9.18334 12.6167 9.73751 12.7959 10.3333H11.2042C11.3834 9.73751 11.6542 9.18334 12 8.68334ZM8.77504 12.8333C8.70837 12.5667 8.66671 12.2875 8.66671 12C8.66671 11.7125 8.70837 11.4333 8.77504 11.1667H10.1834C10.15 11.4417 10.125 11.7167 10.125 12C10.125 12.2833 10.15 12.5583 10.1834 12.8333H8.77504ZM9.11671 13.6667H10.3459C10.4792 14.1875 10.6709 14.6875 10.9209 15.15C10.1542 14.8875 9.51671 14.3583 9.11671 13.6667ZM10.3459 10.3333H9.11671C9.51671 9.64168 10.1542 9.11251 10.9209 8.85001C10.6709 9.31251 10.4792 9.81251 10.3459 10.3333ZM12 15.3167C11.6542 14.8167 11.3834 14.2625 11.2042 13.6667H12.7959C12.6167 14.2625 12.3459 14.8167 12 15.3167ZM12.975 12.8333H11.025C10.9875 12.5583 10.9584 12.2833 10.9584 12C10.9584 11.7167 10.9875 11.4375 11.025 11.1667H12.975C13.0125 11.4375 13.0417 11.7167 13.0417 12C13.0417 12.2833 13.0125 12.5583 12.975 12.8333ZM13.0792 15.15C13.3292 14.6875 13.5209 14.1875 13.6542 13.6667H14.8834C14.4834 14.3542 13.8459 14.8875 13.0792 15.15ZM13.8167 12.8333C13.85 12.5583 13.875 12.2833 13.875 12C13.875 11.7167 13.85 11.4417 13.8167 11.1667H15.225C15.2917 11.4333 15.3334 11.7125 15.3334 12C15.3334 12.2875 15.2917 12.5667 15.225 12.8333H13.8167Z" fill="white"/>
</g>
<defs>
<clipPath id="clip0_1_7352">
<rect width="10" height="10" fill="white" transform="translate(7.00005 7.00002)"/>
</clipPath>
</defs>
</svg>
