<svg width="24" height="24" viewBox="0 0 24 24" fill="none" xmlns="http://www.w3.org/2000/svg">
<rect width="24" height="24" rx="12" fill="#171F2F"/>
<path fill-rule="evenodd" clip-rule="evenodd" d="M9.13942 10.0897C9.1488 9.99752 9.11348 9.90658 9.04473 9.8447L8.34473 9.00095V8.87502H10.5191L12.1997 12.561L13.6772 8.87502H15.75V9.00095L15.1513 9.57502C15.0997 9.61439 15.0741 9.67908 15.0847 9.74314V13.9613C15.0741 14.025 15.0997 14.0897 15.1513 14.1291L15.736 14.7031V14.8291H12.7947V14.7031L13.4007 14.115C13.46 14.0556 13.46 14.0381 13.46 13.9472V10.5378L11.776 14.8153H11.5485L9.58755 10.5378V13.4047C9.5713 13.525 9.6113 13.6466 9.69598 13.7335L10.4838 14.6891V14.8153H8.25005V14.6891L9.03786 13.7335C9.12223 13.6463 9.15973 13.5241 9.13942 13.4047V10.0897Z" fill="white"/>
</svg>
