<svg width="24" height="24" viewBox="0 0 24 24" fill="none" xmlns="http://www.w3.org/2000/svg">
<rect width="24" height="24" rx="12" fill="#171F2F"/>
<path fill-rule="evenodd" clip-rule="evenodd" d="M15.7501 12C15.7501 14.0711 14.0711 15.75 12.0001 15.75C9.92899 15.75 8.25005 14.0711 8.25005 12C8.25005 9.92895 9.92899 8.25002 12.0001 8.25002C14.0711 8.25002 15.7501 9.92895 15.7501 12ZM12.336 10.927L9.81075 11.9675C9.36638 12.1409 9.6265 12.3035 9.6265 12.3035C9.6265 12.3035 10.0058 12.4335 10.331 12.5311C10.6561 12.6286 10.8295 12.5202 10.8295 12.5202L12.3577 11.4906C12.8996 11.1221 12.7696 11.4256 12.6395 11.5557C12.3577 11.8374 11.8917 12.2818 11.5015 12.6395C11.3281 12.7912 11.4148 12.9213 11.4907 12.9863C11.7112 13.1729 12.2305 13.5122 12.4666 13.6665C12.5322 13.7093 12.5759 13.7379 12.5853 13.745C12.6395 13.7883 12.943 13.9834 13.1272 13.94C13.3115 13.8967 13.3331 13.6474 13.3331 13.6474L13.6041 11.9458C13.6282 11.7863 13.6523 11.6301 13.6747 11.4845C13.7331 11.1057 13.7805 10.7982 13.7883 10.6886C13.8209 10.3201 13.4307 10.4718 13.4307 10.4718C13.4307 10.4718 12.5853 10.8187 12.336 10.927Z" fill="white"/>
</svg>
