<svg width="24" height="24" viewBox="0 0 24 24" fill="none" xmlns="http://www.w3.org/2000/svg">
<rect width="24" height="24" rx="12" fill="#171F2F"/>
<path d="M10.6095 14.969C13.439 14.969 14.987 12.6242 14.987 10.5915C14.987 10.5255 14.9856 10.4581 14.9826 10.3922C15.2838 10.1745 15.5436 9.9047 15.7501 9.59565C15.4696 9.72043 15.1718 9.80193 14.8669 9.83735C15.188 9.6449 15.4283 9.34258 15.5435 8.98642C15.2415 9.16542 14.9112 9.29169 14.5668 9.35981C14.3347 9.11323 14.0279 8.94997 13.6937 8.89526C13.3595 8.84055 13.0167 8.89745 12.7181 9.05715C12.4195 9.21685 12.1819 9.47046 12.0419 9.77878C11.9019 10.0871 11.8674 10.4329 11.9437 10.7628C11.3321 10.7321 10.7338 10.5733 10.1875 10.2965C9.64131 10.0198 9.15933 9.63132 8.77286 9.15634C8.57643 9.49501 8.51632 9.89576 8.60475 10.2771C8.69318 10.6585 8.92351 10.9919 9.24893 11.2096C9.00462 11.2019 8.76567 11.1361 8.55181 11.0177V11.0368C8.55159 11.3922 8.67446 11.7367 8.89953 12.0117C9.12459 12.2868 9.43797 12.4754 9.78638 12.5456C9.56007 12.6075 9.32255 12.6165 9.09219 12.5719C9.19051 12.8776 9.3818 13.1449 9.63936 13.3366C9.89692 13.5283 10.2079 13.6348 10.5289 13.6413C9.98394 14.0693 9.31073 14.3015 8.61773 14.3004C8.49483 14.3002 8.37205 14.2927 8.25005 14.2779C8.95407 14.7295 9.77303 14.9694 10.6095 14.969Z" fill="white"/>
</svg>
